<svg version="1.0" xmlns="http://www.w3.org/2000/svg"
 width="191.000000pt" height="240.000000pt" viewBox="0 0 191.000000 240.000000"
 preserveAspectRatio="xMidYMid meet">

<g transform="translate(0.000000,240.000000) scale(0.100000,-0.100000)"
fill="#000000" stroke="none">
<path d="M904 2310 c-162 -81 -273 -513 -262 -1022 l4 -194 -91 -1 c-455 -2
-687 -554 -369 -878 103 -105 225 -155 376 -155 136 0 255 46 349 136 l35 34
45 -41 c101 -94 219 -139 361 -139 260 0 472 187 510 448 23 155 -26 303 -141
424 -49 52 -83 78 -145 108 -88 44 -196 65 -267 54 l-40 -7 7 169 c16 406 -62
830 -183 988 -69 89 -120 110 -189 76z"/>
</g>
</svg>
