<svg xmlns="http://www.w3.org/2000/svg" version="1.0" width="200.000000pt" height="230.000000pt" viewBox="0 0 200.000000 230.000000" preserveAspectRatio="xMidYMid meet">

<g transform="translate(0.000000,230.000000) scale(0.100000,-0.100000)" fill="#000000" stroke="none">
<path d="M1436 1905 c-11 -8 -29 -15 -40 -15 -40 -1 -86 -54 -86 -99 0 -15 -6 -21 -23 -21 -42 0 -62 -35 -62 -105 0 -40 -5 -68 -15 -80 -17 -20 -35 -51 -50 -83 -37 -84 -138 -191 -282 -300 -79 -59 -105 -87 -150 -155 -29 -45 -62 -99 -73 -121 -11 -21 -40 -56 -65 -78 -52 -47 -331 -185 -488 -243 l-102 -38 0 -284 0 -283 106 0 107 0 166 83 c313 158 356 180 415 220 93 63 322 159 576 241 129 41 261 83 293 91 79 22 92 50 89 192 -2 57 4 142 12 190 8 49 15 120 16 158 0 39 3 79 6 91 3 13 -10 51 -35 100 -23 43 -41 84 -41 90 0 5 -11 32 -24 60 -30 62 -59 129 -76 174 -7 19 -17 40 -20 45 -4 6 -8 24 -8 40 -1 43 -19 85 -37 85 -9 0 -15 9 -15 21 0 15 -5 19 -15 15 -8 -3 -14 0 -12 7 3 18 -45 19 -67 2z m101 -77 c-3 -8 -6 -5 -6 6 -1 11 2 17 5 13 3 -3 4 -12 1 -19z m-170 -16 c15 -10 -16 -123 -36 -130 -9 -3 -11 2 -6 17 4 13 1 28 -5 36 -16 20 -5 45 20 45 11 0 20 5 20 10 0 6 -4 10 -10 10 -5 0 -10 5 -10 10 0 12 10 13 27 2z m216 -192 c-6 -7 -23 23 -23 40 0 8 6 4 13 -10 8 -14 12 -27 10 -30z m28 -43 c-10 -9 -11 -8 -5 6 3 10 9 15 12 12 3 -3 0 -11 -7 -18z m-30 -85 c1 -9 1 -23 0 -29 -1 -8 5 -10 14 -7 10 4 15 0 15 -14 0 -11 12 -35 27 -53 24 -28 28 -42 29 -101 1 -38 4 -72 7 -75 4 -3 -1 -12 -9 -20 -8 -9 -13 -22 -9 -31 8 -21 -4 -52 -19 -52 -8 0 -16 -17 -19 -42 -3 -24 -11 -44 -16 -46 -6 -2 -11 -15 -11 -29 0 -14 -10 -33 -22 -43 -12 -10 -23 -28 -24 -41 -5 -73 -32 -97 -97 -85 -17 3 -27 -1 -32 -11 -4 -12 -9 -13 -17 -5 -8 8 -16 8 -23 2 -16 -14 -43 -14 -160 0 -55 6 -107 17 -115 24 -8 7 -21 11 -29 8 -10 -3 -12 0 -7 13 4 13 2 16 -9 11 -9 -3 -15 0 -15 9 0 11 -7 12 -31 5 -18 -5 -35 -7 -40 -5 -4 3 -10 -4 -14 -15 -3 -11 -13 -20 -20 -20 -8 0 -19 -9 -25 -21 -7 -12 -18 -18 -26 -15 -11 4 -14 1 -9 -13 5 -16 2 -18 -15 -14 -15 4 -18 9 -10 18 9 10 6 14 -12 17 -14 2 -22 9 -19 18 2 8 3 25 3 37 -1 11 5 24 13 27 8 3 15 12 15 21 0 8 18 33 40 56 33 34 38 44 29 60 -8 15 -6 19 7 19 12 0 15 7 12 24 -4 17 -1 23 8 19 15 -5 22 8 26 47 2 15 11 27 22 30 11 3 29 25 41 48 27 53 40 66 55 57 9 -6 9 -10 -1 -16 -11 -7 -10 -9 4 -9 9 0 17 -3 17 -7 0 -18 66 -7 88 15 12 12 27 22 33 22 5 0 9 10 7 23 -2 18 2 23 28 25 29 3 30 2 26 -35 -2 -21 -9 -44 -16 -52 -6 -8 -10 -23 -8 -34 6 -31 -7 -67 -23 -67 -20 0 -19 -10 3 -26 16 -12 15 -13 -5 -14 -13 0 -23 -6 -23 -14 0 -21 17 -29 27 -14 5 9 10 1 13 -21 4 -27 10 -35 30 -38 14 -1 21 0 15 4 -5 5 -11 31 -12 58 l-3 50 41 -80 c23 -44 50 -89 61 -100 l21 -20 -8 25 c-4 14 -8 35 -9 47 0 11 -3 20 -6 18 -3 -2 -6 10 -7 26 -2 30 10 38 24 16 12 -18 73 -67 84 -67 5 0 -2 12 -16 28 -52 54 -52 68 -3 63 11 -1 20 7 23 22 6 21 11 24 37 20 27 -4 30 -2 23 14 -15 36 -17 60 -6 100 12 42 44 87 55 76 8 -8 8 21 0 70 -4 21 -12 36 -18 34 -22 -7 -68 67 -51 84 12 13 45 6 46 -9z m-316 -2 c-3 -5 -10 -10 -16 -10 -5 0 -9 5 -9 10 0 6 7 10 16 10 8 0 12 -4 9 -10z m-22 -27 c4 -3 2 -12 -4 -20 -9 -10 -7 -13 10 -13 14 0 23 -8 27 -26 5 -19 9 -22 15 -12 13 19 11 30 -3 22 -8 -5 -8 -1 1 10 25 31 33 -6 11 -50 -11 -21 -20 -31 -20 -21 0 21 -23 22 -40 2 -7 -8 -19 -15 -26 -15 -8 0 -14 -9 -14 -19 0 -17 -6 -20 -40 -18 -22 1 -40 4 -41 7 0 3 -2 13 -4 23 -2 11 -1 16 2 13 3 -3 28 24 56 60 52 64 58 70 70 57z m167 -73 c11 -7 14 -31 14 -112 -1 -99 -2 -103 -24 -106 -12 -2 -27 1 -34 8 -8 8 -7 10 5 5 11 -4 19 0 23 12 3 10 9 24 12 31 3 7 0 11 -8 10 -7 -2 -13 5 -13 14 0 10 -6 23 -13 30 -15 15 -16 58 0 58 9 0 9 3 1 11 -9 9 -9 16 0 30 13 22 16 22 37 9z"/>
<path d="M1485 1040 c3 -5 8 -10 11 -10 2 0 4 5 4 10 0 6 -5 10 -11 10 -5 0 -7 -4 -4 -10z"/>
</g>
</svg>
